<svg id="Layer_1" data-name="Layer 1" xmlns="http://www.w3.org/2000/svg" xmlns:xlink="http://www.w3.org/1999/xlink" viewBox="0 0 239.33 120"><defs><style>.cls-1{fill:url(#linear-gradient);}.cls-2{fill:url(#linear-gradient-2);}.cls-3{fill:url(#linear-gradient-3);}.cls-4{fill:url(#linear-gradient-4);}.cls-5{fill:url(#linear-gradient-5);}.cls-6{fill:url(#linear-gradient-6);}.cls-7{fill:url(#linear-gradient-7);}.cls-8{fill:url(#linear-gradient-8);}</style><linearGradient id="linear-gradient" x1="208.95" y1="-0.51" x2="206.88" y2="0.64" gradientUnits="userSpaceOnUse"><stop offset="0" stop-color="#f0f"/><stop offset="1" stop-color="#93278f"/></linearGradient><linearGradient id="linear-gradient-2" x1="7.75" y1="137.54" x2="5.56" y2="20.65" gradientUnits="userSpaceOnUse"><stop offset="0" stop-color="#f79300"/><stop offset="0" stop-color="#3b4fe4"/><stop offset="0.86" stop-color="#3b4fe4"/><stop offset="1" stop-color="#3b4fe4"/></linearGradient><linearGradient id="linear-gradient-3" x1="58.97" y1="127.76" x2="60.44" y2="67.67" xlink:href="#linear-gradient-2"/><linearGradient id="linear-gradient-4" x1="198.16" y1="119.92" x2="199.53" y2="119.92" gradientUnits="userSpaceOnUse"><stop offset="0" stop-color="#f79300"/><stop offset="1" stop-color="#fbba0e"/></linearGradient><linearGradient id="linear-gradient-5" x1="144" y1="77.04" x2="207.3" y2="77.04" gradientUnits="userSpaceOnUse"><stop offset="0" stop-color="#f79300"/><stop offset="0" stop-color="#3b4fe4"/><stop offset="0.68" stop-color="#3b4fe4"/><stop offset="0.8" stop-color="#3b4fe4"/><stop offset="0.91" stop-color="#3b4fe4"/><stop offset="1" stop-color="#3b4fe4"/></linearGradient><linearGradient id="linear-gradient-6" x1="183.66" y1="39.1" x2="242.33" y2="39.1" gradientUnits="userSpaceOnUse"><stop offset="0" stop-color="#f79300"/><stop offset="0" stop-color="#3b4fe4"/><stop offset="0.82" stop-color="#3d51e4"/><stop offset="1" stop-color="#4054e5"/></linearGradient><linearGradient id="linear-gradient-7" x1="59.88" y1="63.95" x2="57.68" y2="-32.42" gradientUnits="userSpaceOnUse"><stop offset="0" stop-color="#f79300"/><stop offset="0" stop-color="#3b4fe4"/><stop offset="0.92" stop-color="#3b4fe4"/><stop offset="1" stop-color="#3b4fe4"/></linearGradient><linearGradient id="linear-gradient-8" x1="67.65" y1="42.14" x2="123" y2="42.14" xlink:href="#linear-gradient-2"/></defs><path class="cls-1" d="M208.06-.07h1.61c-1.06,0-2.11,0-3.15.07C207,0,207.54-.07,208.06-.07Z" transform="translate(-3 0.07)"/><rect class="cls-2" y="34.22" width="13.24" height="85.78"/><path class="cls-3" d="M78.64,119.93H41.12V61.19h.41a51.32,51.32,0,0,0,3.09,6.61Z" transform="translate(-3 0.07)"/><path class="cls-4" d="M198.67,119.93h-.51c.46,0,.92,0,1.37,0Z" transform="translate(-3 0.07)"/><path class="cls-5" d="M205.43,81.58a10.28,10.28,0,0,1,1.87,6.06,9.57,9.57,0,0,1-1.17,4.66A10.41,10.41,0,0,1,202.59,96a19.2,19.2,0,0,1-5.9,2.47,34.4,34.4,0,0,1-8.29.89,45.51,45.51,0,0,1-16-3,47.37,47.37,0,0,1-14.7-8.86v25.9A51.34,51.34,0,0,0,172,118.31a90.78,90.78,0,0,0,17.45,1.62H144V34.15h13.23v.25q0,11.58,6.41,19.74T183.12,68q5.13,2.19,9.56,4.29a52.1,52.1,0,0,1,7.66,4.37A20.37,20.37,0,0,1,205.43,81.58Z" transform="translate(-3 0.07)"/><path class="cls-6" d="M242.33-.07V78.27h-9.18A28.27,28.27,0,0,0,231.71,73a28.8,28.8,0,0,0-5.83-9.43,42.85,42.85,0,0,0-9.13-7.4,96,96,0,0,0-12-6.19c-1.14-.5-2.25-1-3.31-1.47q-3-1.34-5.47-2.62a43.1,43.1,0,0,1-6.61-4.05,17.14,17.14,0,0,1-4.2-4.36,9,9,0,0,1-.78-1.51,9.65,9.65,0,0,1-.7-3.71A9,9,0,0,1,185,27.4a11.55,11.55,0,0,1,3.74-3.68,19.56,19.56,0,0,1,5.91-2.39,33.26,33.26,0,0,1,7.77-.85A46.5,46.5,0,0,1,209,21a48.66,48.66,0,0,1,7,1.5,47.11,47.11,0,0,1,6.8,2.54,38,38,0,0,1,6.11,3.56V4.38A59.08,59.08,0,0,0,216.44,1,97,97,0,0,0,201-.07Z" transform="translate(-3 0.07)"/><path class="cls-7" d="M77-.07,53.27,36.79,44.79,50c-1.52,2.9-2.61,5.14-3.26,6.7h-.41V-.07Z" transform="translate(-3 0.07)"/><path class="cls-8" d="M123-.07V84.35H90.93c-1.43,0-2.85,0-4.25-.15L82.33,78,67.65,57.17l4.79-6.74,35.9-50.5Z" transform="translate(-3 0.07)"/></svg>